<?xml version="1.0" encoding="utf-8"?>
<!-- Generator: Adobe Illustrator 28.3.0, SVG Export Plug-In . SVG Version: 6.00 Build 0)  -->
<svg version="1.1" id="Layer_1" xmlns="http://www.w3.org/2000/svg" xmlns:xlink="http://www.w3.org/1999/xlink" x="0px" y="0px"
	 viewBox="0 0 906 411" style="enable-background:new 0 0 906 411;" xml:space="preserve">
<style type="text/css">
	.st0{fill:#1397D5;}
</style>
<path class="st0" d="M83.12,384.73c-37.57,0-68.12-29.69-68.12-66.19c0-36.51,30.56-66.2,68.12-66.2c37.56,0,68.11,29.69,68.11,66.2
	C151.24,355.03,120.68,384.73,83.12,384.73 M83.12,255.38c-35.85,0-65,28.34-65,63.16s29.15,63.16,65,63.16
	c35.84,0,64.99-28.34,64.99-63.16S118.96,255.38,83.12,255.38"/>
<path class="st0" d="M83.12,366.53c-27.97,0-50.72-21.53-50.72-48c0-26.47,22.75-48,50.72-48c27.96,0,50.71,21.53,50.71,48
	C133.84,345,111.09,366.53,83.12,366.53 M83.12,273.92c-26.05,0-47.24,20.02-47.24,44.62c0,24.6,21.19,44.62,47.24,44.62
	c26.04,0,47.24-20.02,47.24-44.62C130.37,293.94,109.17,273.92,83.12,273.92"/>
<polygon class="st0" points="29.32,295.51 30.21,298.75 33.47,298.75 31.1,300.57 31.98,303.4 29.18,301.16 26.45,303.61 
	27.54,300.57 24.74,298.76 28,298.82 "/>
<path class="st0" d="M32.31,303.88l-3.13-2.5l-2.63,2.35l-0.29-0.18l1.06-2.92l-3.21-2.05l3.74,0.08l1.47-3.7l1,3.62h3.61
	l-2.66,2.04L32.31,303.88z M25.33,298.95l2.43,1.55l-0.93,2.53l2.34-2.08l2.49,1.98l-0.76-2.41l2.06-1.58h-2.88l-0.8-2.88L28.11,299
	L25.33,298.95z"/>
<polygon class="st0" points="133.22,341.43 134.11,344.67 137.36,344.67 135,346.5 135.88,349.33 133.07,347.08 130.34,349.53 
	131.44,346.5 128.63,344.68 131.89,344.75 "/>
<path class="st0" d="M136.21,349.82l-3.14-2.51l-2.63,2.34l-0.29-0.17l1.06-2.92l-3.21-2.05l3.74,0.08l1.49-3.7l0.98,3.62h3.61
	l-2.65,2.05L136.21,349.82z M129.22,344.86l2.43,1.56l-0.92,2.53l2.33-2.08l2.5,1.98l-0.76-2.41l2.05-1.59h-2.88l-0.79-2.87
	l-1.18,2.95L129.22,344.86z"/>
<polygon class="st0" points="32.8,340.71 33.68,343.95 36.94,343.95 34.58,345.77 35.46,348.6 32.65,346.36 29.93,348.8 
	31.02,345.77 28.22,343.95 31.48,344.02 "/>
<path class="st0" d="M35.8,349.09l-3.14-2.51l-2.63,2.34l-0.29-0.19l1.06-2.9l-3.2-2.06l3.74,0.09l1.47-3.71l0.99,3.62h3.62
	l-2.66,2.05L35.8,349.09z M28.81,344.14l2.43,1.55l-0.92,2.53l2.34-2.07l2.48,1.98l-0.75-2.42l2.05-1.58h-2.89l-0.78-2.87
	l-1.18,2.95L28.81,344.14z"/>
<polygon class="st0" points="137.25,293.18 138.44,296.43 141.4,296.43 139.03,298.24 139.91,301.07 137.25,298.67 134.38,301.28 
	135.47,298.24 132.67,296.43 135.92,296.5 "/>
<path class="st0" d="M140.27,301.63l-3.02-2.72l-2.75,2.5l-0.29-0.18l1.07-2.92l-3.21-2.05l3.74,0.08l1.46-3.65l1.3,3.57h3.34
	l-2.66,2.04L140.27,301.63z M133.27,296.61l2.43,1.55l-0.93,2.53l2.49-2.24l2.32,2.07l-0.74-2.35l2.06-1.58h-2.58l-1.08-2.93
	l-1.2,3.01L133.27,296.61z"/>
<path class="st0" d="M87.13,318.52c0.28-0.01,0.55-0.01,0.82,0H87.13z"/>
<polygon class="st0" points="48.62,356.15 50.04,357.41 43.26,364.54 41.73,363.19 43.58,355.43 43.55,355.41 38.73,360.49 
	37.29,359.21 44.08,352.09 45.69,353.53 43.87,361.08 43.9,361.1 "/>
<path class="st0" d="M85.66,267.86l-2.21-0.22l4.57-9.21l2.43,0.23l2.56,9.91l-2.28-0.22l-0.44-2.04l-3.72-0.35L85.66,267.86z
	 M87.29,264.36l2.57,0.25L89,260.7h-0.03L87.29,264.36z"/>
<polygon class="st0" points="99.25,268.32 104.03,269.8 103.44,271.44 96.66,269.35 99.86,260.3 101.86,260.92 "/>
<path class="st0" d="M114.62,274.2c-1.45,2.11-3.38,2.19-5.52,0.88c-0.77-0.47-1.79-1.37-1.99-2.63c-0.12-0.77,0.15-1.53,0.67-2.34
	l3.64-5.31l1.79,1.1l-3.56,5.2c-0.76,1.11-0.42,2.03,0.39,2.53c1.21,0.76,2.07,0.5,2.74-0.47l3.62-5.28l1.78,1.11L114.62,274.2z"/>
<polygon class="st0" points="119.18,281.82 117.55,280.55 122.89,274.5 120.55,272.65 121.69,271.37 128.01,276.3 126.86,277.61 
	124.51,275.77 "/>
<path class="st0" d="M74.5,265.63c0.11,0.54,0.55,1.5,2.37,1.24c0.98-0.14,2.05-0.51,1.87-1.53c-0.13-0.74-0.91-0.84-2-0.92
	l-1.11-0.08c-1.67-0.14-3.28-0.26-3.64-2.36c-0.19-1.05,0.09-3.02,3.32-3.48c3.05-0.44,4.19,1.36,4.39,2.53l-1.99,0.29
	c-0.13-0.42-0.47-1.41-2.28-1.14c-0.8,0.11-1.69,0.52-1.54,1.39c0.13,0.75,0.8,0.81,1.22,0.85l2.53,0.23
	c1.42,0.13,2.75,0.48,3.04,2.19c0.49,2.87-2.51,3.56-3.38,3.69c-3.63,0.53-4.6-1.41-4.8-2.59L74.5,265.63z"/>
<path class="st0" d="M51.69,265.89c1.19-0.58,4.55-1.65,6.73,2.36c2.18,4-0.65,6.04-1.84,6.63c-1.17,0.58-4.54,1.65-6.73-2.35
	C47.68,268.51,50.52,266.48,51.69,265.89 M55.77,273.36c1-0.49,2.09-1.8,0.8-4.19c-1.3-2.38-3.05-2.27-4.05-1.76
	c-1,0.49-2.09,1.8-0.8,4.18C53.02,273.98,54.77,273.87,55.77,273.36"/>
<path class="st0" d="M37.19,277.5l3.5-3.52c1.85-1.87,3.58-0.92,4.21-0.35c0.79,0.72,1.07,1.73,0.63,2.63
	c0.83-0.34,1.36-0.44,2.7,0.78c1.04,0.94,1.3,1.19,1.73,0.99l0.2,0.17l-1.61,1.6c-0.44-0.21-0.87-0.48-1.6-1.15
	c-0.97-0.9-1.42-1.19-2.49-0.11l-1.49,1.5l2.8,2.56l-1.42,1.42L37.19,277.5z M43.46,277.23c0.76-0.76,0.86-1.38,0.15-2.02
	c-0.38-0.34-1.1-0.69-1.96,0.17l-1.81,1.81l1.92,1.76L43.46,277.23z"/>
<polygon class="st0" points="110.47,361.81 112.17,360.91 117.05,369.21 115.22,370.19 108.17,366.17 108.14,366.19 111.61,372.1 
	109.91,373.02 105.03,364.71 106.97,363.69 113.83,367.61 113.85,367.59 "/>
<path class="st0" d="M114.11,359.14l3.5-2.59c2.66-1.98,5-0.2,6.16,1.24c1.33,1.61,2.56,4.44-0.06,6.38l-3.43,2.54L114.11,359.14z
	 M120.85,364.21l1.6-1.19c1.36-0.99,0.76-2.62-0.28-3.87c-1.81-2.22-3.08-1.58-3.79-1.06l-1.58,1.17L120.85,364.21z"/>
<polygon class="st0" points="130.89,357.75 129.5,359.26 121.96,352.96 123.34,351.45 "/>
<polygon class="st0" points="134.11,286.55 130.88,282.49 129.21,283.72 132.16,287.44 130.76,288.45 127.78,284.74 125.71,286.23 
	129.09,290.46 127.67,291.49 123.05,285.7 131.04,279.9 135.53,285.53 "/>
<path class="st0" d="M55.28,361.1c1.09,0.74,3.63,3.09,0.95,6.78c-2.68,3.69-5.88,2.22-6.97,1.49c-1.09-0.73-3.63-3.09-0.94-6.76
	C51,358.91,54.19,360.38,55.28,361.1 M50.28,367.99c0.92,0.61,2.63,0.94,4.23-1.26c1.61-2.2,0.7-3.62-0.24-4.24
	c-0.93-0.63-2.63-0.94-4.24,1.26C48.44,365.94,49.35,367.37,50.28,367.99"/>
<polygon class="st0" points="65.94,366.3 67.97,367.04 61.14,374.84 59.3,374.16 59.82,364.05 61.9,364.81 61.12,372.34 
	61.14,372.35 "/>
<polygon class="st0" points="69.35,377.18 67.31,376.67 69.91,367.48 71.94,367.99 "/>
<polygon class="st0" points="93.15,377.91 91.19,378.04 90.62,370.05 90.6,370.05 89.29,378.16 87.23,378.31 84.82,370.43 
	84.79,370.43 85.36,378.42 83.41,378.55 82.72,368.99 85.79,368.79 88.15,376.21 88.18,376.21 89.43,368.54 92.48,368.35 "/>
<path class="st0" d="M104.81,371.96c0.67,2.46-0.61,3.89-3.06,4.48c-0.9,0.23-2.29,0.33-3.41-0.38c-0.68-0.43-1.1-1.14-1.37-2.06
	l-1.67-6.19l2.08-0.51l1.63,6.07c0.34,1.29,1.29,1.67,2.25,1.45c1.39-0.33,1.78-1.12,1.48-2.25l-1.66-6.15l2.07-0.51L104.81,371.96z
	"/>
<path class="st0" d="M38.21,291.51l-1.18,1.67l-8.31-5.42l2.58-3.66c1.09-1.54,2.78-1.82,4.41-0.76c0.75,0.48,2.37,2.12,0.85,4.3
	l-1.35,1.91L38.21,291.51z M34.87,287.07c0.87-1.25-0.05-1.85-0.41-2.09c-0.82-0.53-1.46-0.31-2.19,0.73l-0.92,1.33l2.44,1.59
	L34.87,287.07z"/>
<path class="st0" d="M93.06,356.26c0.74,1.64-1.17,1.23-1.91,1.82h-0.61C90.65,357.14,91.7,355.62,93.06,356.26"/>
<path class="st0" d="M82.24,327.02v0.64h-2.58C79.4,326.25,81.63,326.02,82.24,327.02"/>
<polygon class="st0" points="86.73,310.27 87.97,308.8 91.29,308.53 92.81,308.26 92.12,309.6 90.32,310.27 90.59,309.6 
	88.53,309.47 87.42,310.27 "/>
<polygon class="st0" points="94.89,308.39 96,308.26 97.23,308.81 96.54,309.61 95.3,309.87 94.74,310.55 94.05,310.02 
	92.95,310.27 92.81,309.74 93.77,309.47 93.37,308.93 93.77,308.53 "/>
<polygon class="st0" points="98.3,309.67 98.99,309.13 100.23,309.25 99.95,309.93 98.15,310.33 "/>
<polygon class="st0" points="88.53,311.22 89.92,311.09 89.63,311.89 88.24,311.89 "/>
<polygon class="st0" points="97.92,311.02 98.73,310.4 99.19,310.84 98.65,311.27 "/>
<polygon class="st0" points="97.21,312.33 97.9,313.13 98.46,312.87 98.03,311.51 "/>
<polygon class="st0" points="99.73,312.83 100.15,312.29 98.91,311.61 "/>
<line class="st0" x1="99.73" y1="312.83" x2="100.15" y2="312.29"/>
<polygon class="st0" points="101.12,312.23 101.6,312.43 101.41,314.39 100.74,312.61 "/>
<path class="st0" d="M79.04,282.01c0.49-0.53,0.12-2.81-0.67-3.04c-0.93,1.4,1.9,2.05,0,3.04H79.04z M83.48,289.34
	c-0.12-1.11-0.39-3.41,0.65-4.88l0.64-0.63c-0.25,0.18-0.46,0.39-0.64,0.63l-1.26-1.22l0.61-0.63c-0.93,0.29-1.24-0.77-1.92-1.17
	c-0.87,2.27,4.67,5.2-0.61,5.44c-0.36-0.34-0.87-0.65-0.68-1.24h-0.62v0.65h0.62c-0.35,0.29-0.67,0.77-1.23,0.59
	c-0.06,0.7,0.12,1.46-0.67,1.82h1.28c0.36,0.35,0.86,0.64,0.62,1.23c0.87,0.24,2.15-0.52,2.6,0.59
	C82.67,290,83.15,289.69,83.48,289.34 M90.25,318.52c1.36-0.83,2.12-1.39,4.1-1.81c-0.2,0.58,0.29,0.88,0.61,1.23
	c1.4-1.56,2.27-0.29,3.32,0.58c0.51,0.43,1.08,0.76,1.78,0.58c0.03-0.19,0.13-0.37,0.24-0.58h0.69c0.94,2.26,4.53,3.59,4.84,6.11
	c2.22,1.05,5.3,0.16,7.01,2.39c4.48,4.87-5.4,6.63-3.81,11.61c-0.8,3.22-3.31,3.75-6.38,4.22c-0.99,2.47-2.96,3.45-5.1,4.87
	c-3.19-0.12-3.63,2.16-6.39,3.05c-0.98,3.17-3.69,4.03-4.48,7.31c0.5,1,2.2,0.41,1.91,1.82c-2.21,0.05-5.04-1.23-5.09-3.64
	c0.86-6.79,5.96-11.95,6.38-18.87c-3.44-2.47-3.99-7.15-3.8-11.54c2.21-1.1,1.72-3.27,2.52-4.87l-1.24-1.23
	c-1.28,1.83-2.15-0.92-3.85,0c-0.12-0.45-0.35-0.86-0.64-1.23c-0.72-0.88-1.79-1.59-2.57-2.46c-2.52-0.77-5.34-0.93-7.61-2.41
	c-2.89-0.23-1.24-3.39-3.81-4.27c-0.36,0.34-0.87,0.65-0.68,1.23c-4.11-1.05-2.46-5.45-4.42-7.91c0.43-1.73,0.51-3.34,0.14-4.87
	c-0.26-1.05-0.73-2.05-1.44-3.04c-4.04-4.34-8.53,3.16-13.38,0.58c1.77-0.12,3.25-0.94,4.41-2.4c-0.36-0.59-1.47-0.93-1.23-1.82
	l0.62-0.64l-0.62-0.59l0.62-0.59c-0.36-0.34-0.87-0.64-0.62-1.24c2.4-1.87,5.66-4.44,9.52-4.27c2.96-1.05,6.95,2.34,9.61-1.22
	c-1.36-0.07-2.78-2-1.31-2.99c0.93,0.11,1.92-1.46,2.6,0c0.8-0.42,0.61-1.18,0.61-1.88c2.08-1.12,4.37,2.34,5.1-0.6h1.28
	c-0.18,0.6,0.31,0.88,0.62,1.24l0.68-0.64l0.61,0.64c1.72-1.64,2.83,1.7,5.1,0.59c1.72,1.05,2.77,3.39,3.2,5.51
	c-0.68,0-1.47-0.18-1.9,0.58l2.57,2.46c0.81-0.4,0.62-1.16,0.62-1.88c3.08,1.53,4.92,4.64,6.39,7.33c-3.31,0.53-6.32,1.94-8.29,4.86
	c2.03,4.93-6.52,4.81-2.59,9.73l-1.26,1.24c-0.15-1.14-0.53-2.15-1.27-3.06c-3.3,2.05-9.08-2.05-8.28,4.29
	c0.86,0.7,0.8,1.75,1.9,2.39c1.6,0.71,2.16-1.22,3.2-1.81v-0.58h2.53c1.34,2.22-2.83,4.86,1.29,5.44c0,0.71,0.18,1.47-0.63,1.82
	c0.33,0.85,0.88,1.15,1.51,1.23c0.46,0.08,0.97,0.03,1.47,0h0.82c0.49,0.05,0.96,0.19,1.31,0.58
	C89.62,318.89,89.96,318.71,90.25,318.52"/>
<path class="st0" d="M137.35,306.49c0.49-0.08,1.18-0.14,2.19-0.14c0.95,0,1.62,0.17,2.07,0.51c0.45,0.31,0.76,0.89,0.76,1.54
	c0,0.65-0.22,1.22-0.63,1.58c-0.55,0.46-1.32,0.67-2.2,0.67c-0.18,0-0.32-0.02-0.43-0.03v2.18h-1.76V306.49z M139.11,309.32
	c0.1,0.01,0.22,0.02,0.4,0.02c0.69,0,1.12-0.34,1.12-0.88c0-0.49-0.33-0.81-0.99-0.81c-0.28,0-0.44,0.03-0.53,0.04V309.32z"/>
<path class="st0" d="M140.23,320.22l-0.37,1.49h-1.83l1.92-6.42h2.35l1.97,6.42h-1.91l-0.42-1.49H140.23z M141.68,318.96l-0.3-1.15
	c-0.1-0.36-0.23-0.89-0.32-1.26h-0.02c-0.1,0.36-0.19,0.9-0.29,1.27l-0.29,1.14H141.68z"/>
<polygon class="st0" points="138.81,324.45 138.81,326.82 140.95,326.82 140.95,324.45 142.7,324.45 142.7,330.86 140.95,330.86 
	140.95,328.33 138.81,328.33 138.81,330.86 137.03,330.86 137.03,324.45 "/>
<path class="st0" d="M141.14,336.68c0,2.06-1.27,3.37-3.29,3.37c-2.05,0-3.18-1.48-3.18-3.26c0-1.87,1.26-3.35,3.27-3.35
	C140.07,333.43,141.14,334.97,141.14,336.68 M136.54,336.76c0,1.2,0.54,1.95,1.39,1.95c0.85,0,1.36-0.82,1.36-1.97
	c0-1.1-0.51-1.95-1.36-1.95C137.08,334.79,136.54,335.58,136.54,336.76"/>
<path class="st0" d="M29.8,312.95c0,2.07-1.27,3.38-3.29,3.38c-2.05,0-3.18-1.49-3.18-3.28c0-1.86,1.26-3.34,3.27-3.34
	C28.73,309.71,29.8,311.24,29.8,312.95 M25.19,313.03c0,1.2,0.54,1.94,1.4,1.94s1.36-0.81,1.36-1.96c0-1.1-0.52-1.94-1.37-1.94
	S25.19,311.85,25.19,313.03"/>
<path class="st0" d="M23.32,320.13c0.48-0.08,1.17-0.13,2.18-0.13c0.96,0,1.62,0.16,2.08,0.5c0.45,0.32,0.76,0.89,0.76,1.54
	c0,0.66-0.23,1.23-0.63,1.59c-0.55,0.47-1.32,0.66-2.21,0.66c-0.17,0-0.32,0-0.42-0.02v2.18h-1.76V320.13z M25.08,322.97
	c0.1,0,0.21,0.02,0.4,0.02c0.69,0,1.12-0.34,1.12-0.9c0-0.47-0.33-0.8-1-0.8c-0.27,0-0.44,0.03-0.52,0.04V322.97z"/>
<path class="st0" d="M26.17,333.75c0.4,0.2,1.05,0.4,1.71,0.4c0.61,0,0.89-0.21,0.89-0.53c0-0.3-0.29-0.48-1.02-0.74
	c-1.12-0.37-1.85-0.98-1.85-1.94c0-1.13,0.97-2,2.63-2c0.8,0,1.37,0.13,1.79,0.32l-0.36,1.38c-0.29-0.14-0.77-0.31-1.45-0.31
	c-0.53,0-0.83,0.2-0.83,0.48c0,0.32,0.35,0.45,1.18,0.76c1.19,0.42,1.72,1.04,1.72,1.95c0,1.08-0.88,2.04-2.81,2.04
	c-0.79,0-1.56-0.22-1.94-0.4L26.17,333.75z"/>
<path class="st0" d="M173.87,260.69c6.54,0,12.54,5.13,12.54,17.07c0,11.93-6,17.07-12.54,17.07c-6.54,0-12.53-5.14-12.53-17.07
	C161.34,265.82,167.33,260.69,173.87,260.69 M173.87,290.17c3.66,0,6.58-3.27,6.58-12.41c0-9.11-2.92-12.4-6.58-12.4
	c-3.66,0-6.58,3.28-6.58,12.4C167.29,286.89,170.21,290.17,173.87,290.17"/>
<path class="st0" d="M190.92,273.91c0-1.52-0.05-2.95-0.2-4.04h5.06c0.05,1.47,0.19,3,0.19,4.46h0.08c0.68-1.9,2.44-4.85,5.91-4.85
	c0.36,0,0.63,0.1,0.94,0.15v5.51c-0.49-0.14-0.99-0.24-1.57-0.24c-2.3,0-4.82,1.47-4.82,6.04v13.41h-5.59V273.91z"/>
<path class="st0" d="M206.6,298.14c1.31,0.77,3.92,2.1,6.85,2.1c5.27,0,6.13-3.85,6.13-7.71v-2.32h-0.1
	c-0.89,1.89-2.48,4.13-6.13,4.13c-3.25,0-8.11-2.28-8.11-12.17c0-6.74,2.29-12.68,8.38-12.68c3.38,0,4.96,2.04,6.13,4.18h0.19
	c0-1.29,0.13-2.52,0.17-3.8h5.05c-0.09,1.29-0.18,2.57-0.18,3.85v18.06c0,7.66-2.21,13.13-10.74,13.13c-3.69,0-6.63-1-7.97-1.53
	L206.6,298.14z M214.68,290.02c3.51,0,4.92-2.66,4.92-8.22c0-5.13-1.85-7.89-4.51-7.85c-2.93,0.06-4.06,2.9-4.06,7.89
	C211.02,287.6,212.78,290.02,214.68,290.02"/>
<path class="st0" d="M230.95,271.3c1.58-0.77,3.79-1.81,7.34-1.81c7.22,0,8.89,3.71,8.89,9.84v10.69c0,1.77,0.18,3.38,0.31,4.33
	h-5.04c-0.28-0.94-0.31-2.14-0.31-3.32h-0.1c-1.4,2-3.16,3.71-6.49,3.71c-3.61,0-6.94-2.62-6.94-7.18c0-6.66,5.13-8.32,12.21-8.32
	h1.13v-0.9c0-2.42-1.13-4.66-4.33-4.66c-2.79,0-5.28,1.43-6.35,2.38L230.95,271.3z M241.95,282.37h-0.49
	c-4.79,0-7.62,1.04-7.62,4.61c0,2.23,1.39,3.76,3.56,3.76c3.34,0,4.55-2.62,4.55-6.98V282.37z"/>
<path class="st0" d="M252.09,273.91c0-1.52-0.05-2.95-0.19-4.04h5.24c0.05,1.24,0.18,2.52,0.18,3.76h0.13h-0.04
	c0.82-1.47,2.39-4.14,6.17-4.14c5.28,0,6.86,4.14,6.86,9.08v15.78h-5.59v-14.69c0-3.76-0.9-5.33-3.21-5.33
	c-2.93,0-3.96,2.62-3.96,5.75v14.27h-5.59V273.91z"/>
<path class="st0" d="M275.68,259.46h5.76v5.8h-5.76V259.46z M275.76,269.86h5.59v24.48h-5.59V269.86z"/>
<polygon class="st0" points="285.41,289.26 295.32,274.34 285.73,274.34 285.73,269.87 300.92,269.87 300.92,274.91 291.17,289.87 
	301.24,289.87 301.24,294.35 285.41,294.35 "/>
<path class="st0" d="M305.88,271.3c1.58-0.77,3.79-1.81,7.34-1.81c7.22,0,8.9,3.71,8.9,9.84v10.69c0,1.77,0.17,3.38,0.3,4.33h-5.04
	c-0.28-0.94-0.31-2.14-0.31-3.32h-0.1c-1.39,2-3.16,3.71-6.49,3.71c-3.61,0-6.94-2.62-6.94-7.18c0-6.66,5.14-8.32,12.21-8.32h1.13
	v-0.9c0-2.42-1.13-4.66-4.33-4.66c-2.79,0-5.28,1.43-6.35,2.38L305.88,271.3z M316.88,282.37h-0.49c-4.79,0-7.63,1.04-7.63,4.61
	c0,2.23,1.4,3.76,3.56,3.76c3.35,0,4.56-2.62,4.56-6.98V282.37z"/>
<path class="st0" d="M342.8,293.73c-1.31,0.52-3.24,1-5.51,1c-7.66,0-10.9-5.66-10.9-12.59c0-6.99,3.42-12.64,11.23-12.64
	c1.76,0,3.82,0.56,4.87,0.99l-0.3,4.66c-1.01-0.53-2.4-1.19-3.94-1.19c-4.24,0-6.08,3-6.08,8.23c0,4.56,2.07,8.07,6.35,8.07
	c1.36,0,3.21-0.67,3.97-1.19L342.8,293.73z"/>
<path class="st0" d="M346.36,259.46h5.77v5.8h-5.77V259.46z M346.45,269.86h5.59v24.48h-5.59V269.86z"/>
<path class="st0" d="M366.97,269.49c4.73,0,10.19,2.62,10.19,12.59c0,10.26-5.46,12.64-10.19,12.64c-4.73,0-10.23-2.38-10.23-12.64
	C356.73,272.1,362.24,269.49,366.97,269.49 M366.97,290.55c3.61,0,4.41-4.38,4.41-8.47s-0.81-8.42-4.41-8.42s-4.46,4.33-4.46,8.42
	S363.36,290.55,366.97,290.55 M367.19,260.32h5.23l-4.61,6.84h-3.5L367.19,260.32z"/>
<path class="st0" d="M381.3,273.91c0-1.52-0.04-2.95-0.19-4.04h5.24c0.05,1.24,0.18,2.52,0.18,3.76h0.13h-0.04
	c0.83-1.47,2.39-4.14,6.17-4.14c5.28,0,6.86,4.14,6.86,9.08v15.78h-5.59v-14.69c0-3.76-0.9-5.33-3.21-5.33
	c-2.93,0-3.96,2.62-3.96,5.75v14.27h-5.59V273.91z"/>
<path class="st0" d="M162.33,302.86h9.02c6.5,0,9.88,3.8,9.88,10.08c0,6.28-3.38,10.13-9.88,10.13h-3.24v12.98h-5.77V302.86z
	 M170.26,318.4c3.61,0,5.18-1.85,5.18-5.47c0-3.61-1.57-5.42-5.18-5.42h-2.16v10.88H170.26z"/>
<path class="st0" d="M183.56,312.99c1.58-0.77,3.79-1.81,7.34-1.81c7.22,0,8.89,3.7,8.89,9.83v10.7c0,1.76,0.19,3.38,0.31,4.33
	h-5.05c-0.27-0.94-0.3-2.14-0.3-3.33h-0.1c-1.4,2.01-3.16,3.72-6.49,3.72c-3.61,0-6.94-2.62-6.94-7.19c0-6.66,5.14-8.32,12.21-8.32
	h1.13v-0.89c0-2.43-1.13-4.66-4.33-4.66c-2.8,0-5.28,1.43-6.35,2.38L183.56,312.99z M194.57,324.06h-0.49
	c-4.79,0-7.62,1.04-7.62,4.61c0,2.23,1.4,3.76,3.56,3.76c3.33,0,4.55-2.62,4.55-6.99V324.06z"/>
<path class="st0" d="M204.66,315.6c0-1.52-0.04-2.95-0.19-4.04h5.23c0.06,1.24,0.2,2.52,0.2,3.77h0.12h-0.04
	c0.82-1.48,2.4-4.15,6.17-4.15c5.29,0,6.85,4.15,6.85,9.08v15.78h-5.58v-14.69c0-3.75-0.9-5.33-3.21-5.33
	c-2.93,0-3.96,2.62-3.96,5.75v14.27h-5.59V315.6z"/>
<path class="st0" d="M228.93,312.99c1.57-0.77,3.79-1.81,7.33-1.81c7.22,0,8.89,3.7,8.89,9.83v10.7c0,1.76,0.19,3.38,0.31,4.33
	h-5.04c-0.28-0.94-0.31-2.14-0.31-3.33h-0.1c-1.4,2.01-3.15,3.72-6.49,3.72c-3.61,0-6.94-2.62-6.94-7.19
	c0-6.66,5.14-8.32,12.21-8.32h1.13v-0.89c0-2.43-1.13-4.66-4.32-4.66c-2.8,0-5.28,1.43-6.36,2.38L228.93,312.99z M239.92,324.06
	h-0.5c-4.78,0-7.61,1.04-7.61,4.61c0,2.23,1.4,3.76,3.56,3.76c3.33,0,4.55-2.62,4.55-6.99V324.06z"/>
<path class="st0" d="M249.93,315.55c0-1.75-0.09-3.09-0.19-3.99h5.59c0.04,1.29,0.18,2.57,0.18,3.84h0.1
	c0.86-1.9,2.65-4.22,5.86-4.22c3.92,0,5.18,2.57,5.86,3.89c1.12-1.72,2.79-3.89,6.21-3.89c5.05,0,6.68,3.8,6.68,9.73v15.12h-5.59
	V320.6c0-3.04-0.89-4.56-2.97-4.56c-2.49,0-3.79,2.47-3.79,5.17v14.84h-5.59V320.6c0-3.04-0.89-4.56-2.98-4.56
	c-2.48,0-3.79,2.47-3.79,5.17v14.84h-5.58V315.55z"/>
<path class="st0" d="M301.91,334.85c-1.17,0.53-3.62,1.57-6.94,1.57c-7.48,0-10.74-5.65-10.74-12.27c0-7.31,3.66-12.97,9.56-12.97
	c5.01,0,9.29,3.09,9.29,13.07v1.14h-13.43c0,4.18,1.58,6.71,5.91,6.71c3.42,0,5.03-1.09,6.09-1.9L301.91,334.85z M297.67,321.68
	c0-4.33-1.36-6.51-3.88-6.51c-2.93,0-4.14,3.27-4.14,6.51H297.67z"/>
<path class="st0" d="M307.31,315.6c0-1.52-0.04-2.95-0.19-4.04h5.06c0.04,1.47,0.18,3,0.18,4.46h0.09c0.68-1.9,2.44-4.85,5.91-4.85
	c0.36,0,0.62,0.1,0.95,0.15v5.51c-0.51-0.14-1-0.23-1.57-0.23c-2.31,0-4.83,1.46-4.83,6.04v13.4h-5.6V315.6z"/>
<path class="st0" d="M323.19,301.16h5.77v5.79h-5.77V301.16z M323.28,311.56h5.59v24.48h-5.59V311.56z"/>
<path class="st0" d="M349.97,335.42c-1.31,0.53-3.25,1-5.51,1c-7.66,0-10.89-5.65-10.89-12.59c0-6.99,3.41-12.64,11.21-12.64
	c1.77,0,3.83,0.56,4.88,0.99l-0.3,4.66c-1.01-0.52-2.4-1.19-3.93-1.19c-4.24,0-6.09,3-6.09,8.23c0,4.56,2.06,8.07,6.35,8.07
	c1.36,0,3.21-0.67,3.97-1.18L349.97,335.42z"/>
<path class="st0" d="M354.21,312.99c1.58-0.77,3.79-1.81,7.34-1.81c7.22,0,8.89,3.7,8.89,9.83v10.7c0,1.76,0.18,3.38,0.3,4.33h-5.04
	c-0.27-0.94-0.3-2.14-0.3-3.33h-0.1c-1.4,2.01-3.16,3.72-6.5,3.72c-3.61,0-6.93-2.62-6.93-7.19c0-6.66,5.13-8.32,12.21-8.32h1.13
	v-0.89c0-2.43-1.13-4.66-4.33-4.66c-2.8,0-5.28,1.43-6.36,2.38L354.21,312.99z M365.21,324.06h-0.5c-4.78,0-7.62,1.04-7.62,4.61
	c0,2.23,1.41,3.76,3.56,3.76c3.34,0,4.56-2.62,4.56-6.99V324.06z"/>
<path class="st0" d="M375.35,315.6c0-1.52-0.05-2.95-0.19-4.04h5.24c0.04,1.24,0.18,2.52,0.18,3.77h0.13h-0.04
	c0.81-1.48,2.39-4.15,6.17-4.15c5.28,0,6.85,4.15,6.85,9.08v15.78h-5.59v-14.69c0-3.75-0.89-5.33-3.2-5.33
	c-2.93,0-3.96,2.62-3.96,5.75v14.27h-5.59V315.6z"/>
<path class="st0" d="M399.61,312.99c1.57-0.77,3.79-1.81,7.33-1.81c7.22,0,8.89,3.7,8.89,9.83v10.7c0,1.76,0.18,3.38,0.31,4.33
	h-5.04c-0.28-0.94-0.31-2.14-0.31-3.33h-0.1c-1.4,2.01-3.16,3.72-6.49,3.72c-3.62,0-6.94-2.62-6.94-7.19
	c0-6.66,5.13-8.32,12.21-8.32h1.13v-0.89c0-2.43-1.13-4.66-4.33-4.66c-2.79,0-5.27,1.43-6.36,2.38L399.61,312.99z M410.6,324.06
	h-0.49c-4.79,0-7.62,1.04-7.62,4.61c0,2.23,1.4,3.76,3.57,3.76c3.32,0,4.54-2.62,4.54-6.99V324.06z"/>
<path class="st0" d="M180.86,342.08v31.47c0,1.76,0.04,3.27,0.18,4.18h-5.23c-0.09-0.71-0.17-2.13-0.17-3.8h-0.14
	c-0.9,2.08-2.59,4.18-6.18,4.18c-5.78,0-8.15-5.8-8.15-12.59c0-7.98,3.01-12.64,8.01-12.64c3.34,0,5.18,2,5.99,3.9h0.11v-14.7
	H180.86z M170.85,373.78c3.28,0,4.42-3.76,4.42-8.37c0-4.75-1.26-8.22-4.34-8.22c-3.11,0-4.19,3.19-4.19,8.08
	C166.75,370.93,167.6,373.78,170.85,373.78"/>
<path class="st0" d="M202.77,376.54c-1.17,0.53-3.61,1.57-6.95,1.57c-7.48,0-10.73-5.66-10.73-12.27c0-7.31,3.65-12.97,9.56-12.97
	c5.01,0,9.29,3.09,9.29,13.07v1.14H190.5c0,4.18,1.58,6.71,5.91,6.71c3.42,0,5.04-1.09,6.09-1.91L202.77,376.54z M198.54,363.38
	c0-4.33-1.36-6.51-3.88-6.51c-2.93,0-4.15,3.27-4.15,6.51H198.54z"/>
<rect x="219.99" y="342.09" class="st0" width="5.59" height="35.65"/>
<path class="st0" d="M232.03,354.68c1.58-0.77,3.79-1.82,7.34-1.82c7.23,0,8.9,3.72,8.9,9.85v10.69c0,1.77,0.17,3.38,0.3,4.33h-5.04
	c-0.28-0.94-0.32-2.14-0.32-3.32h-0.09c-1.39,2-3.16,3.7-6.48,3.7c-3.62,0-6.95-2.61-6.95-7.18c0-6.65,5.13-8.31,12.21-8.31h1.13
	v-0.9c0-2.42-1.13-4.66-4.33-4.66c-2.79,0-5.27,1.44-6.35,2.38L232.03,354.68z M243.03,365.75h-0.49c-4.79,0-7.63,1.04-7.63,4.61
	c0,2.23,1.41,3.76,3.57,3.76c3.34,0,4.55-2.62,4.55-6.98V365.75z"/>
<path class="st0" d="M265.03,371.32c1.13,0.76,3.62,2.05,6.68,2.05c2.52,0,4.78-1.47,4.78-4.81c0-2.37-1.31-3.42-4.11-5.03
	l-2.93-1.71c-3.11-1.8-5.14-4.42-5.14-8.7c0-5.94,4.65-9.03,9.92-9.03c3.33,0,5.68,0.9,6.59,1.18l-0.28,5.09
	c-1.4-0.57-3.23-1.43-5.91-1.43c-2.88,0-4.37,1.61-4.37,3.9c0,2.47,1.56,3.42,3.33,4.45l3.37,2.01c3.71,2.19,5.47,4.28,5.47,8.93
	c0,6.76-4.55,9.99-10.56,9.99c-3.16,0-5.58-0.48-7.16-1.47L265.03,371.32z"/>
<path class="st0" d="M287.98,354.68c1.58-0.77,3.79-1.82,7.34-1.82c7.22,0,8.89,3.72,8.89,9.85v10.69c0,1.77,0.18,3.38,0.31,4.33
	h-5.04c-0.28-0.94-0.32-2.14-0.32-3.32h-0.1c-1.39,2-3.15,3.7-6.48,3.7c-3.61,0-6.94-2.61-6.94-7.18c0-6.65,5.14-8.31,12.21-8.31
	h1.13v-0.9c0-2.42-1.13-4.66-4.33-4.66c-2.8,0-5.27,1.44-6.36,2.38L287.98,354.68z M298.98,365.75h-0.5c-4.78,0-7.62,1.04-7.62,4.61
	c0,2.23,1.41,3.76,3.57,3.76c3.33,0,4.55-2.62,4.55-6.98V365.75z"/>
<rect x="309.67" y="342.09" class="st0" width="5.59" height="35.65"/>
<path class="st0" d="M338.92,373.69c0,1.52,0.05,2.95,0.19,4.04h-5.24c-0.04-1.23-0.18-2.52-0.18-3.76l-0.13-0.04l0.04,0.04
	c-1.08,1.81-2.53,4.14-6.17,4.14c-5.28,0-6.86-4.14-6.86-9.07v-15.78h5.59v14.69c0,3.75,0.99,5.32,3.34,5.32
	c2.97,0,3.82-2.85,3.82-5.99v-14.02h5.59V373.69z"/>
<path class="st0" d="M362.77,342.08v31.47c0,1.76,0.04,3.27,0.18,4.18h-5.23c-0.09-0.71-0.18-2.13-0.18-3.8h-0.14
	c-0.9,2.08-2.57,4.18-6.17,4.18c-5.77,0-8.16-5.8-8.16-12.59c0-7.98,3.02-12.64,8.02-12.64c3.34,0,5.18,2,6,3.9h0.09v-14.7H362.77z
	 M352.77,373.78c3.28,0,4.41-3.76,4.41-8.37c0-4.75-1.26-8.22-4.33-8.22c-3.11,0-4.19,3.19-4.19,8.08
	C348.67,370.93,349.51,373.78,352.77,373.78"/>
<rect x="594.79" y="346.91" class="st0" width="294.21" height="1.59"/>
<path class="st0" d="M666.28,287.52v-9.69c0-5.46-1.29-9.09-7.55-9.09c-3.03,0-4.93,0.99-6.17,1.65l-0.11,0.06l0.29,4.82l0.29-0.28
	c0.81-0.78,2.81-2.11,5.14-2.11c3.09,0,3.41,2.83,3.41,4.05v0.64h-0.76c-4.8,0-10.32,0.88-10.32,7.72c0,4.38,3,6.69,5.95,6.69
	c2.73,0,4.22-1.5,5.29-3.09c0.01,0.91,0.07,1.84,0.26,2.61l0.04,0.14h4.53l-0.02-0.21C666.45,290.66,666.28,289.16,666.28,287.52
	 M661.58,281.83c0,4.2-1.14,6.15-3.59,6.15c-1.69,0-2.78-1.26-2.78-3.22c0-2.83,1.77-3.99,6.14-3.99h0.23V281.83z M643.05,269.08
	l-0.09,1.56c0,0-0.04,1.12-0.06,1.64c-0.95-1.81-2.34-3.55-5.06-3.55c-4.54,0-7.15,4.26-7.15,11.68c0,10.4,5.29,11.21,6.91,11.21
	c2.85,0,4.21-1.73,4.98-3.27v1.46c0,3.17-0.56,6.79-4.91,6.79c-1.74,0-3.66-0.64-5.59-1.86l-0.26-0.18l-0.29,5.18l0.12,0.05
	c2.19,0.91,4.44,1.39,6.7,1.39c8.04,0,9.07-6.44,9.07-12.06v-16.37l0.16-3.66l-0.19-0.01H643.05z M638.7,287.33
	c-1.32,0-2.85-1.89-2.85-7.23c0-4.71,1.01-6.93,3.2-6.96c0.68-0.02,1.31,0.24,1.82,0.75c1.12,1.09,1.73,3.27,1.73,6.17
	C642.59,285.15,641.42,287.33,638.7,287.33 M680.17,268.73c-2.94,0-4.35,2.07-5.04,3.36c-0.02-0.59-0.06-1.49-0.06-1.49l-0.08-1.52
	h-0.17h-4.54l0.02,0.21c0.11,0.88,0.16,2.06,0.16,3.63v18.71h4.99v-13.1c0-1.89,0.4-5.04,3.11-5.04c1.78,0,2.47,1.31,2.47,4.65
	v13.49h5.01v-14.48C686.04,271.56,684.06,268.73,680.17,268.73 M773.5,260.41h-4.79l-2.53,6.56h3.27L773.5,260.41z M605.25,260.76
	c-5.11,0-10.58,4.11-10.58,15.64c0,11.54,5.47,15.65,10.58,15.65c5.11,0,10.58-4.11,10.58-15.65
	C615.83,264.87,610.36,260.76,605.25,260.76 M605.25,287.46c-3.41,0-5.28-3.92-5.28-11.06c0-7.13,1.87-11.06,5.28-11.06
	c3.4,0,5.27,3.93,5.27,11.06C610.52,283.54,608.65,287.46,605.25,287.46 M628.13,268.73c-2.82,0-4.23,2.44-4.82,3.84
	c-0.02-0.72-0.06-1.72-0.06-1.72l-0.08-1.78h-0.18h-4.38l0.03,0.21c0.09,0.88,0.14,2.06,0.14,3.63v18.71h5v-12.33
	c0-4.91,2.92-5.28,3.82-5.28c0.41,0,0.8,0.06,1.25,0.2l0.25,0.07v-5.39l-0.39-0.08L628.13,268.73z M750.93,265.25h5.14v-5.61h-5.14
	V265.25z M747.3,286.51c-0.58,0.44-2.07,1.05-3.19,1.05c-3.18,0-5.09-2.67-5.09-7.15c0-4.9,1.6-7.27,4.87-7.27
	c1.18,0,2.26,0.53,3.18,1.05l0.25,0.15l0.29-4.64l-0.11-0.06c-0.83-0.36-2.6-0.91-4.12-0.91c-5.94,0-9.5,4.34-9.5,11.64
	c0,7.26,3.46,11.59,9.24,11.59c2.19,0,3.84-0.58,4.62-0.92l0.13-0.05l-0.29-4.68L747.3,286.51z M750.99,291.62h4.98v-22.54h-4.98
	V291.62z M768.65,268.73c-2.62,0-8.67,1.13-8.67,11.59c0,10.13,5.43,11.64,8.67,11.64c3.22,0,8.63-1.51,8.63-11.64
	C777.28,269.86,771.25,268.73,768.65,268.73 M768.65,287.8c-2.92,0-3.52-4.07-3.52-7.48c0-3.39,0.6-7.45,3.52-7.45
	c2.3,0,3.48,2.52,3.48,7.45C772.13,285.29,770.95,287.8,768.65,287.8 M690.54,291.62h4.99v-22.54h-4.99V291.62z M690.46,265.25h5.15
	v-5.61h-5.15V265.25z M730.23,287.52v-9.69c0-5.46-1.28-9.09-7.54-9.09c-3.03,0-4.94,0.99-6.18,1.65l-0.11,0.06l0.3,4.82l0.29-0.28
	c0.82-0.78,2.8-2.11,5.14-2.11c3.08,0,3.41,2.83,3.41,4.05v0.64h-0.76c-4.8,0-10.31,0.88-10.31,7.72c0,4.38,2.99,6.69,5.94,6.69
	c2.72,0,4.23-1.5,5.28-3.09c0.03,0.89,0.07,1.83,0.28,2.61l0.03,0.14h4.53l-0.03-0.21C730.4,290.67,730.23,289.17,730.23,287.52
	 M725.54,281.83c0,4.2-1.15,6.15-3.61,6.15c-1.67,0-2.76-1.26-2.76-3.22c0-2.83,1.77-3.99,6.13-3.99h0.24V281.83z M712.22,273.86
	v-4.79h-12.98v4.4h7.84c-0.32,0.53-8.1,13.29-8.1,13.29v4.85h13.5v-4.41h-8.2C704.59,286.68,712.22,273.86,712.22,273.86
	 M790.53,268.73c-2.94,0-4.35,2.07-5.04,3.36c-0.02-0.59-0.06-1.49-0.06-1.49l-0.08-1.52h-0.17h-4.54l0.02,0.21
	c0.1,0.88,0.15,2.07,0.15,3.63v18.71h5.01v-13.1c0-1.89,0.4-5.04,3.1-5.04c1.79,0,2.48,1.31,2.48,4.65v13.49h5v-14.48
	C796.4,271.56,794.42,268.73,790.53,268.73"/>
<path class="st0" d="M703.47,330.67v-9.16c0-5.18-1.23-8.63-7.15-8.63c-2.87,0-4.67,0.94-5.86,1.57l-0.1,0.05l0.29,4.56l0.26-0.26
	c0.77-0.74,2.66-1.99,4.87-1.99c2.92,0,3.24,2.67,3.24,3.82v0.6h-0.72c-4.55,0-9.77,0.84-9.77,7.31c0,4.16,2.83,6.33,5.62,6.33
	c2.59,0,4-1.43,5.01-2.92c0.02,0.87,0.06,1.73,0.25,2.47l0.03,0.12h4.3l-0.02-0.19C703.62,333.66,703.47,332.25,703.47,330.67
	 M699.02,325.3c0,3.97-1.08,5.83-3.41,5.83c-1.59,0-2.63-1.2-2.63-3.05c0-2.7,1.69-3.8,5.82-3.8h0.22V325.3z M651.43,312.88
	c-2.8,0-4.12,1.99-4.78,3.2c-0.02-0.56-0.06-1.43-0.06-1.43l-0.07-1.44h-0.16h-4.31l0.01,0.2c0.1,0.83,0.15,1.95,0.15,3.44v17.71
	h4.74v-12.41c0-1.78,0.38-4.76,2.95-4.76c1.69,0,2.33,1.23,2.33,4.39v12.77h4.75v-13.72C656.99,315.55,655.11,312.88,651.43,312.88
	 M608.03,326.58c-0.25-1.03-5-20.84-5-20.84h-7.07v28.82h4.45v-22.79c0.49,1.98,5.67,22.79,5.67,22.79h3.5
	c0,0,5.48-20.97,5.97-22.85v22.85H620v-28.82h-6.85C613.15,305.74,608.29,325.56,608.03,326.58 M638.39,330.93v-17.72h-4.73v12.21
	c0,2.26-0.5,4.97-2.85,4.97c-1.74,0-2.45-1.28-2.45-4.4v-12.77h-4.74v13.72c0,5.29,1.87,7.96,5.55,7.96c2.74,0,3.98-1.81,4.78-3.22
	c0.02,0.56,0.06,1.46,0.06,1.46l0.07,1.43h0.17h4.31l-0.03-0.19C638.42,333.55,638.39,332.41,638.39,330.93 M680.42,309.6h4.87
	v-5.32h-4.87V309.6z M676.15,330.81v-27.19h-4.74v12.16c-0.6-1.17-1.92-2.9-4.6-2.9c-4.06,0-6.49,4.12-6.49,11.03
	c0,6.88,2.47,10.98,6.59,10.98c2.23,0,3.8-1.1,4.79-3.28c0.03,1.29,0.09,2.3,0.14,2.81l0.02,0.14h4.46l-0.03-0.2
	C676.19,333.69,676.15,332.52,676.15,330.81 M668.11,330.83c-2.22,0-3.05-1.93-3.05-7.13c0-4.55,1.02-6.76,3.13-6.76
	c2.8,0,3.22,4.32,3.22,6.89C671.41,327.03,670.85,330.83,668.11,330.83 M707.84,334.56h4.73v-30.94h-4.73V334.56z M680.48,334.56
	h4.73V313.2h-4.73V334.56z M841.55,330.67v-9.16c0-5.18-1.23-8.63-7.16-8.63c-2.88,0-4.67,0.94-5.86,1.57l-0.11,0.05l0.28,4.56
	l0.28-0.26c0.77-0.74,2.67-1.99,4.88-1.99c2.91,0,3.22,2.67,3.22,3.82v0.6h-0.7c-4.56,0-9.77,0.84-9.77,7.31
	c0,4.16,2.82,6.33,5.62,6.33c2.57,0,3.99-1.42,5-2.91c0.01,0.87,0.05,1.73,0.25,2.46l0.04,0.12h4.29l-0.03-0.19
	C841.67,333.49,841.55,332.14,841.55,330.67 M837.07,325.3c0,3.97-1.08,5.83-3.4,5.83c-1.59,0-2.63-1.2-2.63-3.05
	c0-2.7,1.68-3.8,5.81-3.8h0.22V325.3z M869.67,330.93v-17.72h-4.74v12.21c0,2.26-0.49,4.97-2.85,4.97c-1.72,0-2.44-1.28-2.44-4.4
	v-12.77h-4.74v13.72c0,5.29,1.88,7.96,5.55,7.96c2.75,0,3.98-1.81,4.79-3.22c0.03,0.57,0.06,1.47,0.06,1.47l0.07,1.42h0.17h4.31
	l-0.03-0.19C869.71,333.55,869.67,332.41,869.67,330.93 M845.9,334.56h4.73v-30.94h-4.73V334.56z M888.98,334.36
	c-0.1-0.68-0.15-1.84-0.15-3.55v-27.19h-4.74v12.16c-0.59-1.17-1.92-2.9-4.61-2.9c-4.06,0-6.48,4.12-6.48,11.03
	c0,6.88,2.47,10.98,6.59,10.98c2.24,0,3.8-1.1,4.8-3.28c0.02,1.28,0.08,2.29,0.14,2.81l0.02,0.14H889L888.98,334.36z M880.8,330.83
	c-2.22,0-3.05-1.93-3.05-7.13c0-4.55,1.02-6.76,3.12-6.76c2.8,0,3.22,4.32,3.22,6.89C884.09,327.03,883.52,330.83,880.8,330.83
	 M752.68,312.88c-4.51,0-7.69,4.65-7.69,11.32c0,5.17,2.27,10.7,8.62,10.7c2.72,0,4.68-0.95,5.53-1.37l0.1-0.04l-0.24-4.46
	l-0.27,0.23c-0.96,0.83-2.2,1.58-4.67,1.58c-3.01,0-4.42-1.73-4.46-5.4h10.56v-1.16C760.16,314.87,756.1,312.88,752.68,312.88
	 M749.6,321.9c0.04-2.46,0.85-5.25,3.08-5.25c2.33,0,2.85,2.81,2.86,5.25H749.6z M773.27,334.62h4.74v-31.34h-4.74V334.62z
	 M741.59,330.81v-27.19h-4.73v12.16c-0.6-1.17-1.94-2.9-4.61-2.9c-4.06,0-6.49,4.12-6.49,11.03c0,6.88,2.47,10.98,6.6,10.98
	c2.23,0,3.79-1.1,4.79-3.28c0.01,1.27,0.08,2.29,0.14,2.81l0.01,0.14h4.46l-0.03-0.2C741.63,333.69,741.59,332.52,741.59,330.81
	 M733.56,330.83c-2.22,0-3.06-1.93-3.06-7.13c0-4.55,1.02-6.76,3.13-6.76c2.81,0,3.23,4.32,3.23,6.89
	C736.86,327.03,736.28,330.83,733.56,330.83 M819.59,318.42l-2.64-1.73c-1.38-0.88-2.56-1.64-2.56-3.69c0-1.99,1.23-3.17,3.26-3.17
	c1.9,0,3.22,0.61,4.31,1.09l0.5,0.22l0.23-4.74l-0.36-0.14c-0.85-0.3-2.6-0.93-4.98-0.93c-3.96,0-7.96,2.45-7.96,7.91
	c0,3.42,1.31,5.84,4.12,7.62l2.29,1.46c2.14,1.35,3.16,2.2,3.16,4.19c0,2.91-1.86,3.94-3.59,3.94c-2.61,0-4.6-1.31-5.14-1.72
	l-0.25-0.19l-0.28,5.06l0.08,0.07c1.25,0.85,3.18,1.29,5.73,1.29c5.29,0,8.46-3.27,8.46-8.74
	C823.96,322.03,822.43,320.24,819.59,318.42 M796.25,330.67v-9.16c0-5.18-1.21-8.63-7.15-8.63c-2.87,0-4.67,0.94-5.85,1.57
	l-0.11,0.05l0.29,4.56l0.27-0.26c0.76-0.74,2.65-1.99,4.88-1.99c2.91,0,3.22,2.67,3.22,3.82v0.6h-0.72c-4.54,0-9.75,0.84-9.75,7.31
	c0,4.16,2.81,6.33,5.61,6.33c2.58,0,3.99-1.43,5.01-2.91c0.01,0.86,0.05,1.72,0.25,2.46l0.02,0.12h4.3l-0.02-0.19
	C796.41,333.66,796.25,332.25,796.25,330.67 M791.8,325.3c0,3.97-1.08,5.83-3.4,5.83c-1.59,0-2.63-1.2-2.63-3.05
	c0-2.7,1.69-3.8,5.82-3.8h0.22V325.3z"/>
<path class="st0" d="M462.98,373.77c1.92,0,3.69,1.79,3.69,5.96c0,4.17-1.77,5.96-3.69,5.96c-1.93,0-3.69-1.79-3.69-5.96
	C459.29,375.56,461.05,373.77,462.98,373.77 M462.98,384.06c1.06,0,1.94-1.14,1.94-4.33c0-3.19-0.87-4.34-1.94-4.34
	c-1.07,0-1.94,1.15-1.94,4.34C461.04,382.92,461.91,384.06,462.98,384.06"/>
<polygon class="st0" points="467.93,373.94 472.62,373.94 472.62,375.63 469.63,375.63 469.63,378.78 472.48,378.78 472.48,380.48 
	469.63,380.48 469.63,385.52 467.93,385.52 "/>
<rect x="473.76" y="373.93" class="st0" width="1.7" height="11.58"/>
<path class="st0" d="M483.01,385.27c-0.34,0.23-1.18,0.41-2.02,0.41c-2.81,0-4.26-2.58-4.26-5.96c0-3.38,1.45-5.96,4.22-5.96
	c0.93,0,1.71,0.31,2.05,0.48l-0.09,1.92c-0.35-0.23-0.9-0.64-1.76-0.64c-1.42,0-2.63,1.2-2.63,4.2c0,3.01,1.21,4.2,2.63,4.2
	c0.82,0,1.37-0.25,1.76-0.6L483.01,385.27z"/>
<rect x="484.17" y="373.93" class="st0" width="1.7" height="11.58"/>
<polygon class="st0" points="487.51,373.94 489.53,373.94 492.62,383.03 492.63,383.03 492.63,373.94 494.16,373.94 494.16,385.52 
	492.14,385.52 489.07,376.49 489.05,376.49 489.05,385.52 487.51,385.52 "/>
<path class="st0" d="M500.44,382.74h-3.19l-0.66,2.78h-1.7l3.11-11.58h1.86l2.98,11.58h-1.75L500.44,382.74z M500.08,381.11
	l-1.17-5.42h-0.03l-1.27,5.42H500.08z"/>
<path class="st0" d="M506.61,373.94h2.9c1.64,0,2.76,0.92,2.76,3.05c0,1.51-0.76,2.53-1.8,2.72v0.05c0.34,0.07,0.73,0.27,1.02,1.34
	l1.21,4.42h-1.8l-0.92-3.77c-0.23-0.91-0.66-1.22-1.28-1.22h-0.39v4.98h-1.7V373.94z M509,378.98c0.9,0,1.51-0.59,1.51-1.76
	c0-1.33-0.55-1.66-1.51-1.66h-0.69v3.42H509z"/>
<polygon class="st0" points="513.75,373.94 518.62,373.94 518.62,375.63 515.45,375.63 515.45,378.72 518.46,378.72 518.46,380.41 
	515.45,380.41 515.45,383.83 518.75,383.83 518.75,385.52 513.75,385.52 "/>
<path class="st0" d="M523.75,379.03h3v6.07c-0.48,0.3-1.3,0.59-2.51,0.59c-2.97,0-4.55-2.53-4.55-5.96c0-3.43,1.58-5.96,4.55-5.96
	c1.06,0,1.9,0.3,2.26,0.5l-0.09,1.9c-0.55-0.41-1.3-0.7-2.14-0.7c-1.81,0-2.77,1.86-2.77,4.26c0,2.61,0.94,4.27,2.67,4.27
	c0.4,0,0.77-0.1,0.99-0.22v-3.12h-1.42V379.03z"/>
<rect x="528.34" y="373.93" class="st0" width="1.7" height="11.58"/>
<path class="st0" d="M535.01,373.77c1.92,0,3.69,1.79,3.69,5.96c0,4.17-1.77,5.96-3.69,5.96c-1.92,0-3.7-1.79-3.7-5.96
	C531.32,375.56,533.1,373.77,535.01,373.77 M535.01,384.06c1.06,0,1.93-1.14,1.93-4.33c0-3.19-0.87-4.34-1.93-4.34
	c-1.07,0-1.94,1.15-1.94,4.34C533.08,382.92,533.94,384.06,535.01,384.06"/>
<polygon class="st0" points="539.95,373.94 541.98,373.94 545.06,383.03 545.08,383.03 545.08,373.94 546.62,373.94 546.62,385.52 
	544.58,385.52 541.52,376.49 541.49,376.49 541.49,385.52 539.95,385.52 "/>
<path class="st0" d="M552.88,382.74h-3.2l-0.65,2.78h-1.7l3.11-11.58h1.86l2.99,11.58h-1.76L552.88,382.74z M552.53,381.11
	l-1.17-5.42h-0.03l-1.27,5.42H552.53z"/>
<polygon class="st0" points="555.94,373.94 557.64,373.94 557.64,383.83 560.7,383.83 560.7,385.52 555.94,385.52 "/>
<path class="st0" d="M564.62,373.94h2.66c1.91,0,2.91,1.33,2.91,3.52c0,2.19-1,3.54-2.91,3.54h-0.96v4.53h-1.7V373.94z
	 M566.96,379.36c1.06,0,1.53-0.64,1.53-1.91c0-1.26-0.47-1.9-1.53-1.9h-0.64v3.8H566.96z"/>
<path class="st0" d="M574.92,382.74h-3.2l-0.66,2.78h-1.7l3.11-11.58h1.87l2.98,11.58h-1.75L574.92,382.74z M574.56,381.11
	l-1.16-5.42h-0.03l-1.28,5.42H574.56z"/>
<path class="st0" d="M577.97,373.94h2.9c1.65,0,2.77,0.92,2.77,3.05c0,1.51-0.77,2.53-1.8,2.72v0.05c0.34,0.07,0.72,0.27,1.02,1.34
	l1.2,4.42h-1.8l-0.91-3.77c-0.24-0.91-0.67-1.22-1.3-1.22h-0.38v4.98h-1.7V373.94z M580.37,378.98c0.88,0,1.51-0.59,1.51-1.76
	c0-1.33-0.55-1.66-1.51-1.66h-0.7v3.42H580.37z"/>
<path class="st0" d="M589.75,382.74h-3.2l-0.65,2.78h-1.7l3.11-11.58h1.86l2.98,11.58h-1.74L589.75,382.74z M589.39,381.11
	l-1.18-5.42h-0.02l-1.27,5.42H589.39z"/>
<polygon class="st0" points="595.93,373.94 597.63,373.94 597.63,383.83 600.68,383.83 600.68,385.52 595.93,385.52 "/>
<path class="st0" d="M606.22,382.74h-3.2l-0.66,2.78h-1.71l3.12-11.58h1.86l2.99,11.58h-1.76L606.22,382.74z M605.86,381.11
	l-1.17-5.42h-0.02l-1.28,5.42H605.86z"/>
<path class="st0" d="M609.24,383.28c0.32,0.27,1.06,0.72,1.97,0.72c0.74,0,1.41-0.52,1.41-1.68c0-0.83-0.38-1.19-1.2-1.76
	l-0.88-0.59c-0.91-0.64-1.5-1.55-1.5-3.04c0-2.08,1.36-3.16,2.91-3.16c0.98,0,1.68,0.31,1.94,0.4l-0.08,1.79
	c-0.41-0.2-0.95-0.5-1.73-0.5c-0.86,0-1.3,0.57-1.3,1.36c0,0.87,0.47,1.2,0.98,1.56l1,0.7c1.08,0.77,1.6,1.49,1.6,3.13
	c0,2.35-1.35,3.48-3.11,3.48c-0.93,0-1.64-0.16-2.1-0.51L609.24,383.28z"/>
<path class="st0" d="M561.65,270.59c2.4,2.85,6.56,4.52,9.01,7.37c-1.75-8.43-8.26-15.32-15.96-16.96
	C558.45,263.82,559.26,267.75,561.65,270.59 M469.15,291.96c5.29-11.53,13.21-9.08,16.56-20.09c-1.89,3.38-10.53,4.8-14.54,13.44
	c2.05-5.13,1.02-12.99,4.48-17.24C465.29,275.72,469.71,288.09,469.15,291.96 M478.76,319.63c0.94,4.49-1.85,10.97,2.59,17.18
	c-4.59-5.16-14.33-6.47-18.32-14.32c4.97,19.16,17.9,15.22,23.75,19.38C481.96,334.98,485.91,330.39,478.76,319.63 M477.26,331.66
	c-2.86-10.71,2.23-14.4-1.64-24.68c-0.39,5.78-4.26,8.6-1.66,19.19c-4.59-8.97-11.7-12.31-13.75-18.46
	C460.34,324.54,473.84,327.02,477.26,331.66 M498.01,349.63c-3.97-5.51-1.26-8.61-12.44-18.62c2.37,3.66-0.07,8.24,7.46,15.39
	c-7.37-4.36-17.55-2.49-22.45-8.31C479.02,354.2,493.81,347.61,498.01,349.63 M552.09,346.39c7.53-7.15,5.09-11.73,7.46-15.39
	c-11.18,10.01-8.47,13.12-12.45,18.62c4.2-2.02,18.99,4.57,27.42-11.54C569.64,343.9,559.46,342.04,552.09,346.39 M563.77,336.81
	c4.43-6.2,1.64-12.68,2.6-17.18c-7.15,10.76-3.21,15.35-8.02,22.24c5.84-4.16,18.78-0.22,23.74-19.38
	C578.11,330.34,568.37,331.64,563.77,336.81 M545.93,350.38c-4.38-1.16-8.88-1.74-12.23-1.83c-4.16-0.11-7.9,0.69-11.14,1.89
	c-3.23-1.2-6.96-2-11.14-1.89c-3.35,0.09-7.86,0.67-12.22,1.83c-6.71,1.79-12.54,3.18-17.6,0.62c4.86,4.31,10.52,5.84,18.7,4.96
	c6.81-0.74,12.32-4.14,18.75-4.09c0.07,0,0.16,0,0.25,0c-6.76,3.42-10.59,8.24-10.59,8.24l3.1,0.41c0,0,3.25-6.56,10.76-8.26
	c7.5,1.7,10.76,8.26,10.76,8.26l3.1-0.41c0,0-3.81-4.82-10.58-8.24c0.08,0,0.16,0,0.25,0c6.42-0.05,11.92,3.35,18.73,4.09
	c8.19,0.88,13.84-0.65,18.71-4.96C558.45,353.56,552.63,352.17,545.93,350.38 M476.08,295.37c-2.77,5.32-7.08,6.54-6.63,17.51
	c-2.32-9.75-7.88-13.38-7.8-19.62c-3.86,16.27,6.46,18.2,9.11,25.02C470.36,308.51,476.6,306.54,476.08,295.37 M479.95,282.8
	c-0.96,1.36-1.64,1.93-4.22,4.05c-3.51,2.89-6.3,6.69-7.49,12.23c0.27-5.96-3.41-14.54-0.96-20.78
	c-9.49,13.39,0.53,21.42,0.89,26.27C470.63,295.24,476.28,295.16,479.95,282.8 M576.88,299.08c-1.18-5.55-3.98-9.34-7.49-12.23
	c-2.57-2.12-3.25-2.69-4.21-4.05c3.67,12.36,9.32,12.44,11.78,21.77c0.34-4.85,10.38-12.88,0.89-26.27
	C580.3,284.54,576.62,293.12,576.88,299.08 M584.92,307.71c-2.05,6.15-9.16,9.5-13.76,18.46c2.61-10.59-1.25-13.41-1.65-19.19
	c-3.86,10.27,1.22,13.97-1.64,24.68C571.28,327.02,584.77,324.54,584.92,307.71 M569.05,295.37c-0.54,11.17,5.7,13.14,5.31,22.91
	c2.65-6.82,12.98-8.75,9.1-25.02c0.08,6.24-5.48,9.87-7.81,19.62C576.12,301.91,571.82,300.69,569.05,295.37 M483.47,270.59
	c2.39-2.84,3.21-6.76,6.95-9.59c-7.7,1.64-14.21,8.53-15.96,16.96C476.91,275.11,481.07,273.44,483.47,270.59 M559.41,271.88
	c3.35,11,11.26,8.55,16.56,20.09c-0.56-3.87,3.86-16.24-6.5-23.88c3.46,4.25,2.45,12.1,4.48,17.24
	C569.94,276.67,561.3,275.26,559.41,271.88 M532.55,278.13c-2-0.83-4.11-1.42-6.31-1.73c0,0.47-0.01,0.94-0.02,1.42
	c2.02,0.3,3.97,0.85,5.81,1.6C532.27,279.02,532.45,278.6,532.55,278.13 M530.95,264.52l0.42-0.38l-0.81-0.34l-2.12-0.04l-0.54,0.38
	l-1.25-0.11l-0.01,0.3c0.79,0.06,1.56,0.13,2.17,0.24l1.03-0.1L530.95,264.52z M526.87,310.13c0-0.36-0.47-0.71-1.18-1.04h-0.13
	c0,0.29-0.03,1.72-0.05,2.42C526.37,311.13,526.87,310.7,526.87,310.13 M502.36,283.25c0.06-0.29,0.11-0.52,0.18-0.78
	c-0.26,0.06-0.56,0.1-0.87,0.09L502.36,283.25z M522.61,345.48c23.8,0,43.15-19.36,43.15-43.15c0-22.32-17.03-40.74-38.78-42.94
	c-0.02,0.09-0.04,0.17-0.05,0.25c-0.09,0.42-0.17,0.8-0.23,1.13c9.73,0.95,18.5,5.27,25.12,11.77l-4.76,4.76l0.18-0.84l-0.62-0.28
	l-0.87-0.06l0.19-0.54l-0.58-1.95l-1.19-1.3l-3.72-1.97l-0.31,0.34l-0.67,0.19c1.28,1.89,1.96,4.05,1.96,6.25
	c0,0.29,0,0.58-0.01,0.85l1.84,2.32l-0.87,0.21l0.58,0.87l-1.64,1.63l-0.64-1.26c-0.31,0.88-0.73,1.68-1.24,2.43
	c0.13,0.12,0.25,0.23,0.36,0.33l-5.01,5.01c-0.3-0.29-0.62-0.56-0.94-0.83c-0.48,0.22-0.97,0.43-1.46,0.62
	c0.14,0.11,0.29,0.22,0.42,0.32l-0.25,0.27l-0.59,0.32l-0.22,0.59l-0.37-0.37l-1.05,0.36l0.29,0.45l0.74-0.19l0.46,0.03l0.04-0.26
	l0.37-0.18l0.11-0.23l0.66-0.18l0.51-0.03c0.11,0.1,0.2,0.19,0.3,0.28l-2,1.99l-0.15-0.21l-2.07,0.34l-0.46,0.46l-0.45,0.05
	l1.29-1.24l-0.46-0.23l-1.2,1.61l0.35-0.03l-0.03,0.59l0.44,0.17l0.09,0.64l-0.72-0.15l-0.76,0.15l-1.83-0.95c0,0-0.1,4.9-0.15,7.37
	c4.3,1.45,8.87,3.53,8.87,9.03c0,2.42-1.04,4.37-3.09,5.8l0.01,0.01c-0.03,0.02-0.06,0.04-0.1,0.06h-0.01
	c-0.04,0.03-0.09,0.06-0.13,0.09c-1.74,1.16-3.98,1.76-5.93,2.38c-0.01,0.01-0.06,3.84-0.06,3.84c3.09,1.53,6.84,3.77,6.5,10.15
	c-0.05,1.58-0.66,2.02-1.19,2.15v0.01c-1.81,0.44-3.67,0.75-5.57,0.88c-0.02,0.48-0.02,0.95-0.02,1.4c8.3-0.57,15.82-4.07,21.51-9.5
	l5.01,5.01c-7.52,7.21-17.71,11.66-28.92,11.66c-11.15,0-21.31-4.39-28.8-11.55l5.01-5c5.62,5.31,13.02,8.77,21.2,9.37
	c0-0.43-0.01-0.9-0.02-1.41c-7.79-0.6-14.82-3.9-20.19-8.97l1.34-1.34l1.85,0.22l0.97-1.05l2.56,0.09l0.38-0.88l-0.1-0.38
	c3.72,2.82,8.2,4.67,13.08,5.18c-0.02-0.55-0.03-1.02-0.03-1.42c-5.4-0.6-10.25-2.92-14.04-6.42l5.02-5.01
	c1.2,1.09,2.58,2.01,4.07,2.73c0.1-0.48,0.28-0.92,0.49-1.32c-1.3-0.65-2.5-1.46-3.58-2.4l5.03-5.03c0.8,0.64,1.7,1.15,2.68,1.49
	c-0.01-0.49-0.02-1.01-0.02-1.51c-0.6-0.26-1.16-0.58-1.67-0.97l1.43-1.42c-0.5-0.16-1-0.31-1.5-0.48l-0.94,0.94
	c-0.48-0.53-0.89-1.13-1.21-1.78c-0.87-0.39-1.7-0.82-2.49-1.33c-3.09-2.04-4.65-4.91-4.65-8.52c0-2.76,0.78-4.86,2.04-6.48l-5-5
	c3.6-3.44,8.24-5.82,13.39-6.59c-0.01-0.49-0.02-0.96-0.03-1.42c-5.53,0.8-10.5,3.32-14.34,7.01l-0.87-0.85
	c-0.18,0.33-0.4,0.77-0.67,1.31l0.54,0.53c-4.3,4.58-6.98,10.72-7.09,17.47h-7.1c0.11-8.71,3.58-16.62,9.16-22.49l2.26,2.26
	c0.11,0,0.21,0,0.31-0.01c0.4-0.03,0.85-0.17,1.29-0.38l-2.87-2.87c1.51-1.45,3.17-2.77,4.94-3.93c0.14-0.47,0.28-0.89,0.34-1.04
	c0.09-0.18,0.55-0.78,1.09-1.46c-2.69,1.48-5.17,3.32-7.36,5.46l-5-5.01c6.57-6.4,15.23-10.66,24.85-11.63
	c-0.03-0.18-0.06-0.3-0.06-0.3c-0.06-0.33-0.14-0.7-0.21-1.08c-21.69,2.25-38.65,20.65-38.65,42.93
	C479.45,326.12,498.82,345.48,522.61,345.48 M531.92,315.67v-0.03l0.02,0.02C531.94,315.66,531.93,315.67,531.92,315.67
	 M552.81,273.53c7.06,7.39,11.43,17.37,11.54,28.36h-7.09c-0.07-5.45-1.4-10.59-3.71-15.14l0.06-0.14l0.5,0.27l0.11-0.37l-1.27-2.23
	l-1.49-2.07l-1.77-1.47c-0.6-0.74-1.23-1.48-1.9-2.18L552.81,273.53z M543.79,282.62l1.71,0.07l0.4,0.49l-0.21,0.72l2.36,1.47
	l0.47-0.06l3.03,3.47l1.23-0.43c1.92,4.12,3.02,8.7,3.08,13.54h-7.09c-0.03-1.86-0.27-3.66-0.66-5.4l0.32-0.44l0.43-2.22l-0.32-2.39
	l-0.86-2.74l-1.98-2.89l0.47,0.25l0.25-0.25l-1.58-1.07l-0.11,0.36l1.58,2.27l0.9,1.86l0.64,1.84l0.2,1.24l0.34,2.08l-0.61,0.04
	c0,0-0.67-1.28-0.88-1.8l0.31-0.47l-0.61-0.88v-0.86l-0.43-0.55l-0.53,0.07c-0.2-0.35-0.39-0.71-0.61-1.06l0.38,0.2l0.11-0.1
	l-0.21-0.45l0.46-0.26l-0.22-0.27l-0.68,0.27l0.25-1.08l-0.4-0.23l-0.36,0.86c-0.78-1.16-1.64-2.26-2.59-3.28L543.79,282.62z
	 M542.36,299.25l1.28-0.7l1.3-0.21l0.29-0.64l0.72-0.43l0.29-0.6l0.22-1.05c0.12,0.37,0.21,0.76,0.29,1.12l-0.69,2.06l-0.03,0.68
	l1-1.32c0.21,1.2,0.32,2.45,0.35,3.73h-6.22l-0.14-0.55l0.72-0.57l0.15-0.34l0.31-0.24l0.84-0.09l0.09-0.38L542.36,299.25z
	 M533.86,294.35l0.63-0.14l-0.02-0.15l-0.64-0.42l0.23-1.35l0.75-0.76c0.47,0.55,0.91,1.11,1.32,1.72l-0.26,0.82l-0.71-0.5
	l-0.52,0.16l0.26,0.48h0.26l-0.29,0.73l-0.2-0.29L533.86,294.35z M536.57,317.91l-1.52-0.42l-0.47,0.17l-0.87-0.67l-0.83-0.29
	c0.41-0.29,0.81-0.59,1.18-0.91l1.26,0.89l0.96,0.5l0.48,0.49L536.57,317.91z M535.78,290.56l5.02-5.01c1.17,1.27,2.2,2.66,3.1,4.16
	l-0.62,0.18l0.04,1.12l1.88,1.18c0.45,1.03,0.85,2.08,1.17,3.19l-0.32,0.46l-0.69,0.44l-0.17,1.03l-0.46,0.27l-0.38,0.46l-0.39-0.15
	l-0.69-0.03l0.4-0.55l0.29-1.41l0.46-0.29l-1.35-1.3l-1.02,0.33l-0.24,0.96l-0.63,0.69l-0.66-0.55l-0.24-0.58l0.37-0.24l0.22,0.38
	l0.3-0.12l-0.14-0.64l-0.43-0.02l-0.03,0.26l-0.29,0.06l-1.55-1.82l-0.53-0.4l0.2-0.23l0.48-0.16l-0.43-0.17
	c0,0-0.56,0.13-0.62,0.13l0.31,0.39l-0.8-0.03C536.87,291.87,536.35,291.19,535.78,290.56 M538.34,317.25l-0.68-0.68l0.52-0.68
	l0.66-1.34l-0.26-0.36l0.43-0.99l-0.05-0.89l-0.27-0.92l-0.62-0.22l-0.23,0.53l-0.36-0.11c0.53-0.85,1.1-1.65,1.48-2.59l0.64-0.28
	l0.35-0.48l0.18,0.21l0.43-0.52l-0.35-0.44l0.32-0.09l0.57,0.25l1.1,0.02l0.66-0.34l1.74-0.46l-0.33-0.58l-0.12-0.69l0.93,0.41
	l0.35-0.22l-0.17-0.72l-1.15,0.43l-1.26-0.27l-0.95-1.95h5.43c-0.25,6.24-2.8,11.9-6.84,16.13l-0.75-0.75l0.32-1l-0.58-2.19
	L538.34,317.25z M539.3,331.08l0.67-1.43l-0.26-0.64l0.98-0.87v-0.52l-0.85-0.52l0.7-1.39l1.04-1.35l-1.04-1.13h-0.79l-0.48-0.79
	c0.41-0.34,0.83-0.7,1.22-1.07l5.02,5.02C543.65,328.2,541.55,329.78,539.3,331.08 M545.55,324.47l0.55-0.63l-0.51-2.74l-0.36-0.14
	l0.22-0.47l-1.18-0.37l-0.23,0.98l-0.13,1.25l-0.25,0.23l-2.15-2.16c4.29-4.48,7.02-10.49,7.26-17.12h7.09
	c-0.25,8.58-3.76,16.36-9.33,22.13L545.55,324.47z M547.5,326.41c5.84-6.04,9.51-14.16,9.75-23.12h7.1
	c-0.26,10.92-4.72,20.82-11.84,28.13L547.5,326.41z M504.81,319.54c-0.51-0.53-1-1.08-1.46-1.65l0.21-1.8l-0.75-1.72l-0.19-2.69
	l-0.83-1.64l0.17-1.01l-1.01-1.95l-0.88-0.44l0.36-1.02l-0.37-0.83l0.37-0.92h0.96l0.34-0.57h1.65l0.26,0.48l-0.29,1.68l-0.22,0.3
	l0.62,1.35l-0.4,0.23l-0.29-0.35l-0.12,0.13l0.29,0.81l0.48,0.93l0.23-0.02l0.14-0.84l-0.24-0.3l-0.03-0.58l-0.07-1.18l0.35-2.07
	l-0.34-0.56h1.2c0.23,4.36,2.04,8.28,4.87,11.24L504.81,319.54z M500.13,305.68l-0.68,1.05h-1.14l-0.09-0.07
	c-0.21-1.1-0.32-2.23-0.37-3.37H500l-0.51,1.71L500.13,305.68z M502.46,300.81l0.13-1.42l0.85-0.48l1.5,0.27l0.23,0.27
	c-0.14,0.81-0.21,1.61-0.23,2.45h-1.71L502.46,300.81z M509.66,306.11l0.35-0.19l0.92,0.71l-0.39,0.32l1.03,0.69l-0.06-0.74
	l0.55-0.91l0.58,0.61l0.6,0.86l-1.07,0.24l0.49,0.98l0.75-0.4l-0.1-0.31l0.56-0.37l0.32-1.54c0.4,0.91,0.95,1.76,1.63,2.49l-5,5.01
	c-2.4-2.52-4-5.79-4.4-9.42l1.02,1.09l0.97-0.01L509.66,306.11z M504.53,285.42l5.01,5.01c-1.06,1.15-1.95,2.44-2.67,3.83
	l-0.34-0.03l-0.71,0.23l-0.24-0.03l-0.75,0.7l0.94-0.15l0.85-0.21c-0.04,0.1-0.09,0.21-0.15,0.32l-0.75,0.45h-0.34l-1.11,0.85
	l-1.05-0.09l-1.55,2.87l0.3,0.57l-0.84,0.93l-0.13,1.21h-3.17C497.96,295.52,500.47,289.75,504.53,285.42 M498.05,323.24l1.58,0.93
	l0.33,0.23l-1.15,1.15c-0.54-0.56-1.05-1.14-1.55-1.73L498.05,323.24z M496.46,303.29c0.03,0.69,0.09,1.37,0.16,2.05l-0.86,0.2
	l-0.19,0.88l-1.81,2.3l0.05,3.16l-1.86,0.62l-1.01,0.01c-0.94-2.91-1.49-6.02-1.58-9.21H496.46z M489.45,312.46l-0.41-0.09
	l-0.39-0.44l-1.99-0.17l0.62,0.84l-1.85-0.35l0.49-0.44l-0.45-0.44l-1.33,0.58l-0.48,0.88l0.19,2.01l1.51,3.68l0.75,1.15l0.42,0.16
	l-1.17-2.2l-0.25-1.11l0.27-0.29l-0.16-0.61l0.69,0.09l1.06,1.61l0.28,0.12l-0.02-1.18l0.43,0.26l0.09,0.64l1.13,0.29l0.46-0.33
	l0.16,0.12l-0.02,0.87l0.5,0.6l0.6,0.14l1.32,2.21l0.8,0.24l0.24-1.04c1.4,2.28,3.04,4.4,4.9,6.31l-5.01,5.01
	c-7.18-7.33-11.69-17.28-11.95-28.27h7.1C488.04,306.47,488.57,309.54,489.45,312.46 M492.51,273.4l5.01,5
	c-5.84,6.13-9.47,14.38-9.58,23.49h-7.1C480.97,290.84,485.39,280.82,492.51,273.4 M543.86,270.82l-0.43-0.68l-0.92-0.47l-0.73,0.55
	l0.92,0.5l1.04,0.74L543.86,270.82z M539.56,290.83l0.03,0.54l1.22-0.36l0.38-0.76l-0.86-1.1l0.45-0.69l1.14,0.83l0.23-0.17
	l-0.24-0.17l-0.27-0.49l0.47-0.27l-0.46-0.61l-1.07,0.55l-0.38,0.65l-0.2,0.59l0.47,0.8l-0.18,0.36L539.56,290.83z M488.28,322.64
	l0.09-0.32l-0.64-1.39l-0.76-0.28L488.28,322.64z M517.27,295.98c0,1.2,0.73,2.04,2.05,2.76c0,0-0.02-0.21-0.02-0.53l-0.82-0.84
	l0.43-0.79l0.36-0.11c-0.03-1.39-0.06-2.94-0.07-3.16h-0.07C517.93,294,517.27,294.82,517.27,295.98"/>
<path class="st0" d="M525.19,326.73c2.22,1.13,4.29,2.67,5.13,5.63c0.38-4.9-2.35-7.01-5.07-8.44
	C525.25,323.94,525.19,326.73,525.19,326.73"/>
<path class="st0" d="M539.99,277.16c0-4.43-3.23-9.35-11.11-11.09c-0.58-0.13-1.47-0.22-2.41-0.29c-0.01,0.67-0.05,2.2-0.05,2.2
	c-0.01,0.48-0.05,2.25-0.06,2.63c0.73,0.07,1.27,0.16,1.51,0.22c4.58,1.09,6.22,3.73,6.22,6.32c0,4.22-3.6,5.8-8.02,7
	c-0.48,0.14-0.97,0.26-1.46,0.37c-1.36,0.34-2.73,0.67-4.09,1.03c-0.49,0.13-0.98,0.28-1.45,0.42c-4.92,1.49-9.13,3.85-9.13,9.92
	c0,6.01,4.81,8.25,9.52,9.69c-0.03-1.73-0.07-3.46-0.12-5.21c-2.06-0.97-3.52-2.25-3.52-4.4c0-2.1,1.33-3.37,3.36-4.29
	c0.45-0.22,0.93-0.4,1.46-0.57c1.17-0.4,2.49-0.74,3.85-1.07c0.48-0.12,0.96-0.24,1.47-0.35
	C532.57,288.1,539.99,286.03,539.99,277.16"/>
<path class="st0" d="M516.21,319.51c0.01,2.43,1.79,3.76,3.58,4.75c-0.01-0.41-0.07-4.17-0.08-4.23c0.04-0.75,0.78-1.19,1.35-1.47
	c0.87-0.41,1.73-0.7,2.85-1.09c0.52-0.18,0.98-0.36,1.49-0.51c3.59-1.08,7.74-2.46,7.74-6.82c0-4.38-3.56-6.16-7.45-7.5
	c-0.03,1.39-0.07,3.41-0.1,4.83c1.64,0.65,2.73,1.43,2.73,2.67c0,1.56-1.67,2.46-2.86,2.92c-0.48,0.2-1.24,0.44-1.45,0.5
	c-0.95,0.3-1.99,0.65-2.94,1c-0.51,0.19-0.99,0.39-1.46,0.63C517.94,316.04,516.2,317.3,516.21,319.51"/>
<path class="st0" d="M518.64,266.48c-2.38,0.68-3.79,1.58-4.32,1.76c-1.55,0.51-3.73,0.6-5.99,3.06c-0.39,0.43-1.37,1.66-2.06,2.66
	c-0.68,0.98-0.71,2.55-1.21,3.4c-0.73,1.22-0.55,1.92-0.55,1.92l0.03,0.04c-0.04,0.15-0.19,0.81-0.83,1.54
	c-0.77,0.83-1.75,1.3-2.93,1.1c1.02,0.52,2.44-0.21,2.44-0.21s-0.28,0.79-0.54,2.05c1.15-2.61,2.2-3.56,2.54-3.82
	c0.5,0.12,1.52,0.07,3.42-1.02c2.15-1.24,5.4-3.25,6.31-4.53c0.98-1.37,2.34-2.28,3.81-2.87
	C518.72,269.64,518.68,267.92,518.64,266.48 M509.25,274.99l-1.11,0.24l1.64-2.54l1.55,0.05L509.25,274.99z"/>
<path class="st0" d="M523.09,319.21c-0.21,0.07-0.74,0.31-1.08,0.42c-0.36,0.13-0.82,0.31-0.82,0.44c0,0.03,0.34,18.81,0.34,19.22
	c0,3.86,1.97,3.88,1.97,0c0-0.28,0.4-20.35,0.4-20.35S523.42,319.09,523.09,319.21"/>
<path class="st0" d="M521.05,313.02c0.61-0.21,1.22-0.4,1.79-0.58c0.43-0.13,0.83-0.26,1.19-0.37c0.03-1.18,0.36-17.52,0.42-20.5
	c-1.47,0.36-2.74,0.73-3.8,1.1C520.7,294.9,521.01,311.24,521.05,313.02"/>
<path class="st0" d="M522.69,250.44c-5.53,0-3.19,8.19-2.74,10.87c0.02,0.12,0.44,18.53,0.53,22.75c0.84-0.23,1.67-0.42,2.49-0.62
	c0.58-0.14,1.14-0.29,1.67-0.41c0.08-4.07,0.49-21.64,0.5-21.75C525.48,258.42,528.37,250.44,522.69,250.44"/>
<path class="st0" d="M634.03,380.83h-6.91l-1.5,5.74h-4.99l7.31-25.69h5.68l7.07,25.69h-5.3L634.03,380.83z M630.74,365.81h-0.06
	l-2.62,10.68h4.95L630.74,365.81z"/>
<path class="st0" d="M660.47,374.76c0-2.21-0.8-3.01-1.9-3.01c-1.48,0-2.05,1.25-2.05,2.67v12.15h-4.98v-11.82
	c0-2.43-0.91-3.01-1.73-3.01c-1.64,0-2.22,1.65-2.22,4.08v10.75h-4.98v-15.17c0-1.84-0.03-3.01-0.13-4.01h4.54
	c0.07,0.86,0.13,1.92,0.13,3.21h0.07c0.76-2.1,2.02-3.5,4.64-3.5c2.36,0,3.56,1.3,4.27,3.21c0.71-1.81,1.88-3.21,4.5-3.21
	c3.63,0,4.83,3.1,4.83,6.93v12.55h-4.98V374.76z"/>
<path class="st0" d="M682.93,378.51h-9.68c0,2.28,1.26,4.38,4.07,4.38c1.7,0,3.4-0.74,4.63-1.51l0.1,4.38
	c-1.61,0.7-3.5,1.1-5.21,1.1c-5.77,0-8.32-4.09-8.32-9.94c0-5.15,2.59-9.83,7.29-9.83c1.48,0,7.13,0,7.13,10.02V378.51z
	 M678.39,375.35c0-2.43-0.54-4.71-2.59-4.71c-2.56,0-2.56,3.68-2.56,4.71H678.39z"/>
<path class="st0" d="M685.86,371.41c0-1.84-0.03-3.01-0.12-4.01h4.54c0.03,1.14,0.09,2.33,0.12,3.46h0.07
	c1.01-2.06,1.7-3.75,4.57-3.75h0.73v5.37c-0.53-0.15-0.97-0.22-1.67-0.22c-2.91,0-3.25,2.94-3.25,5.73v8.57h-4.98V371.41z"/>
<path class="st0" d="M698.29,358.96h4.97v5.15h-4.97V358.96z M698.29,367.4h4.97v19.18h-4.97V367.4z"/>
<path class="st0" d="M718.52,386.06c-1.46,0.44-2.93,0.82-4.51,0.82c-6.34,0-7.77-6.19-7.77-9.68c0-5.9,2.9-10.09,8.14-10.09
	c1.65,0,2.53,0.47,3.98,0.92l-0.26,4.37c-0.9-0.4-1.85-0.81-2.9-0.81c-3.79,0-3.79,4.85-3.79,5.6c0,4.04,2.14,5.34,4.04,5.34
	c1.03,0,1.99-0.45,2.9-0.86L718.52,386.06z"/>
<path class="st0" d="M722.05,368.32c1.3-0.48,3.52-1.22,5.31-1.22c5.77,0,7.1,2.8,7.1,7.07v7c0,2.83,0.03,4.12,0.13,5.4h-4.55
	l-0.12-2.64h-0.07c-0.21,1.18-2.14,2.95-4.51,2.95c-3.05,0-5.07-2.32-5.07-5.82c0-6.4,6.4-6.44,8.13-6.44h1.52
	c0-3.68-2.33-3.68-3.07-3.68c-1.25,0-2.62,0.32-4.56,1.69L722.05,368.32z M729.91,377.34c-2,0-5.11,0.15-5.11,3.34
	c0,2.51,1.73,2.51,2.14,2.51c0.44,0,2.97-0.08,2.97-4.74V377.34z"/>
<path class="st0" d="M747.65,372.22c-1.33-0.63-2.56-1.03-4.01-1.03c-1.3,0-1.86,0.73-1.86,1.4c0,1.18,0.73,1.58,3.43,2.75
	c1.71,0.75,3.44,2,3.44,5.6c0,4.27-2.73,5.94-6.06,5.94c-1.45,0-3.66-0.2-5.39-0.93l0.12-4.48c1.2,0.84,2.72,1.32,4.11,1.32
	c2.33,0,2.49-0.95,2.49-1.8c0-0.86-1.29-1.21-3.44-2.25c-1.73-0.85-3.43-2.46-3.43-5.89c0-2.06,1.25-5.74,6.14-5.74
	c2.05,0,3.76,0.44,4.57,0.78L747.65,372.22z"/>
<polygon class="st0" points="672.71,365.47 675.48,358.5 679.66,358.5 675.48,365.47 "/>
<path class="st0" d="M234.83,210.59c-65.63,0-104.09-30.97-104.09-90.9c0-58.91,38.46-90.89,104.09-90.89s104.88,31.98,104.88,90.89
	C339.71,179.62,300.46,210.59,234.83,210.59 M234.83,168.28c28.5,0,29.32-29.71,29.57-48.6c-0.26-16.35-2.14-48.59-29.57-48.59
	c-26.62,0-28.78,32.24-28.78,48.59C206.05,138.57,209.01,168.28,234.83,168.28"/>
<path class="st0" d="M355.6,31.81h123.99c29.32,0,68.85,13.1,68.85,60.43c0,45.84-31.46,64.72-69.13,64.72h-51.64v50.61H355.6V31.81
	z M425.8,116.16h15.87c17.22,0,34.71-3.02,34.71-22.66c0-18.63-17.49-20.9-34.97-20.9h-15.6V116.16z"/>
<path class="st0" d="M718.99,79.91c-16.14-5.29-35.24-8.81-55.68-8.81c-11.3,0-30.93,0.24-30.93,11.57c0,22.92,98.71,1.26,98.71,69
	c0,47.08-49.76,58.92-91.44,58.92c-27.71,0-50.56-2.52-77.46-8.3V156.7c19.37,7.56,43.03,11.58,64.56,11.58
	c16.94,0,32.27-3.27,32.27-12.08c0-23.67-98.7-2.26-98.7-70.5c0-48.34,53.8-56.91,96.56-56.91c20.16,0,42.48,2.26,62.13,6.05V79.91z
	"/>
</svg>
